<svg id="visual" viewBox="0 0 900 600" width="900" height="600" xmlns="http://www.w3.org/2000/svg" xmlns:xlink="http://www.w3.org/1999/xlink" version="1.1"><path d="M0 205L13.7 205C27.3 205 54.7 205 82 195C109.3 185 136.7 165 163.8 171C191 177 218 209 245.2 217C272.3 225 299.7 209 327 198C354.3 187 381.7 181 409 177C436.3 173 463.7 171 491 177C518.3 183 545.7 197 573 200C600.3 203 627.7 195 654.8 181C682 167 709 147 736.2 147C763.3 147 790.7 167 818 179C845.3 191 872.7 195 886.3 197L900 199L900 0L886.3 0C872.7 0 845.3 0 818 0C790.7 0 763.3 0 736.2 0C709 0 682 0 654.8 0C627.7 0 600.3 0 573 0C545.7 0 518.3 0 491 0C463.7 0 436.3 0 409 0C381.7 0 354.3 0 327 0C299.7 0 272.3 0 245.2 0C218 0 191 0 163.8 0C136.7 0 109.3 0 82 0C54.7 0 27.3 0 13.7 0L0 0Z" fill="#7781cd"></path><path d="M0 289L13.7 284C27.3 279 54.7 269 82 260C109.3 251 136.7 243 163.8 249C191 255 218 275 245.2 283C272.3 291 299.7 287 327 282C354.3 277 381.7 271 409 267C436.3 263 463.7 261 491 259C518.3 257 545.7 255 573 256C600.3 257 627.7 261 654.8 247C682 233 709 201 736.2 200C763.3 199 790.7 229 818 247C845.3 265 872.7 271 886.3 274L900 277L900 197L886.3 195C872.7 193 845.3 189 818 177C790.7 165 763.3 145 736.2 145C709 145 682 165 654.8 179C627.7 193 600.3 201 573 198C545.7 195 518.3 181 491 175C463.7 169 436.3 171 409 175C381.7 179 354.3 185 327 196C299.7 207 272.3 223 245.2 215C218 207 191 175 163.8 169C136.7 163 109.3 183 82 193C54.7 203 27.3 203 13.7 203L0 203Z" fill="#5c69c1"></path><path d="M0 367L13.7 365C27.3 363 54.7 359 82 356C109.3 353 136.7 351 163.8 365C191 379 218 409 245.2 419C272.3 429 299.7 419 327 401C354.3 383 381.7 357 409 348C436.3 339 463.7 347 491 343C518.3 339 545.7 323 573 330C600.3 337 627.7 367 654.8 363C682 359 709 321 736.2 306C763.3 291 790.7 299 818 320C845.3 341 872.7 375 886.3 392L900 409L900 275L886.3 272C872.7 269 845.3 263 818 245C790.7 227 763.3 197 736.2 198C709 199 682 231 654.8 245C627.7 259 600.3 255 573 254C545.7 253 518.3 255 491 257C463.7 259 436.3 261 409 265C381.7 269 354.3 275 327 280C299.7 285 272.3 289 245.2 281C218 273 191 253 163.8 247C136.7 241 109.3 249 82 258C54.7 267 27.3 277 13.7 282L0 287Z" fill="#3f51b5"></path><path d="M0 451L13.7 454C27.3 457 54.7 463 82 458C109.3 453 136.7 437 163.8 440C191 443 218 465 245.2 472C272.3 479 299.7 471 327 464C354.3 457 381.7 451 409 452C436.3 453 463.7 461 491 458C518.3 455 545.7 441 573 438C600.3 435 627.7 443 654.8 437C682 431 709 411 736.2 407C763.3 403 790.7 415 818 437C845.3 459 872.7 491 886.3 507L900 523L900 407L886.3 390C872.7 373 845.3 339 818 318C790.7 297 763.3 289 736.2 304C709 319 682 357 654.8 361C627.7 365 600.3 335 573 328C545.7 321 518.3 337 491 341C463.7 345 436.3 337 409 346C381.7 355 354.3 381 327 399C299.7 417 272.3 427 245.2 417C218 407 191 377 163.8 363C136.7 349 109.3 351 82 354C54.7 357 27.3 361 13.7 363L0 365Z" fill="#36469d"></path><path d="M0 601L13.7 601C27.3 601 54.7 601 82 601C109.3 601 136.7 601 163.8 601C191 601 218 601 245.2 601C272.3 601 299.7 601 327 601C354.3 601 381.7 601 409 601C436.3 601 463.7 601 491 601C518.3 601 545.7 601 573 601C600.3 601 627.7 601 654.8 601C682 601 709 601 736.2 601C763.3 601 790.7 601 818 601C845.3 601 872.7 601 886.3 601L900 601L900 521L886.3 505C872.7 489 845.3 457 818 435C790.7 413 763.3 401 736.2 405C709 409 682 429 654.8 435C627.7 441 600.3 433 573 436C545.7 439 518.3 453 491 456C463.7 459 436.3 451 409 450C381.7 449 354.3 455 327 462C299.7 469 272.3 477 245.2 470C218 463 191 441 163.8 438C136.7 435 109.3 451 82 456C54.7 461 27.3 455 13.7 452L0 449Z" fill="#2d3c85"></path></svg>